<svg xmlns="http://www.w3.org/2000/svg" viewBox="0 0 342 407">
	<path style="fill:#010002;" d="M222.2,116.4c4.5,0,8.1-3.6,8.1-8.1c0-4.5-3.6-8.1-8.1-8.1H110.9c-4.5,0-8.1,3.6-8.1,8.1
		c0,4.5,3.6,8.1,8.1,8.1H222.2z"/>
	<path style="fill:#010002;" d="M333.9,100.1h-55.2c-4.5,0-8.1,3.6-8.1,8.1c0,4.5,3.6,8.1,8.1,8.1h47.1v274.4H16.2V116.4h44.4
		c4.5,0,8.1-3.6,8.1-8.1c0-4.5-3.6-8.1-8.1-8.1H8.1c-4.5,0-8.1,3.6-8.1,8.1v290.6c0,4.5,3.6,8.1,8.1,8.1h325.8
		c4.5,0,8.1-3.6,8.1-8.1V108.3C342,103.8,338.4,100.1,333.9,100.1z"/>
	<path style="fill:#010002;" d="M249.6,134.6c4.5,0,8.1-3.6,8.1-8.1V67.3c0-37.1-40-67.3-89.4-67.3c-49.2,0-89.2,30.2-89.2,67.3
		v59.2c0,4.5,3.6,8.1,8.1,8.1c4.5,0,8.1-3.6,8.1-8.1V67.3c0-28.2,32.7-51.1,73.2-51.1c40.2,0,73,22.9,73,51.1v59.2
		C241.5,131,245.2,134.6,249.6,134.6z"/>
	<path style="fill:#010002;" d="M66.4,147.4c0,11.5,9.4,20.9,20.9,20.9c11.5,0,20.9-9.4,20.9-20.9c0-4.5-3.6-8.1-8.1-8.1
		s-8.1,3.6-8.1,8.1c0,2.6-2.1,4.6-4.7,4.6c-2.6,0-4.7-2.1-4.7-4.6c0-4.5-3.6-8.1-8.1-8.1S66.4,142.9,66.4,147.4z"/>
	<path style="fill:#010002;" d="M249.6,168.3c11.5,0,20.9-9.4,20.9-20.9c0-4.5-3.6-8.1-8.1-8.1c-4.5,0-8.1,3.6-8.1,8.1
		c0,2.6-2.1,4.6-4.7,4.6c-2.6,0-4.7-2.1-4.7-4.6c0-4.5-3.6-8.1-8.1-8.1c-4.5,0-8.1,3.6-8.1,8.1C228.8,158.9,238.1,168.3,249.6,168.3
		z"/>
</svg>
